<svg width="29" height="29" viewBox="0 0 29 29" fill="none" xmlns="http://www.w3.org/2000/svg">
<path d="M6.04188 11.9145C8.35753 16.958 12.478 20.9678 17.6007 23.1416L18.4219 23.5075C20.3006 24.3446 22.5092 23.7086 23.6551 22.0006L24.7282 20.4011C25.0771 19.8811 24.9709 19.1807 24.4835 18.7875L20.8442 15.8515C20.3096 15.4203 19.5236 15.5207 19.1146 16.0725L17.9888 17.5917C15.0999 16.1667 12.7545 13.8212 11.3294 10.9323L12.8486 9.80649C13.4004 9.39756 13.5009 8.61153 13.0696 8.07698L10.1335 4.43755C9.74039 3.95025 9.04016 3.84396 8.52013 4.19264L6.90962 5.27253C5.19095 6.42493 4.55853 8.6517 5.41492 10.5354L6.04094 11.9125L6.04188 11.9145Z" fill="#E6EDFE"/>
</svg>
