<svg width="45" height="45" viewBox="0 0 45 45" fill="none" xmlns="http://www.w3.org/2000/svg">
<path d="M19.6875 14.0619V11.2494H2.8125C1.26281 11.2494 0 12.5122 0 14.0619V19.6869H20.2809C19.89 17.9685 19.6875 16.1178 19.6875 14.0619Z" fill="#014DF5"/>
<path d="M44.8847 25.3119C42.9666 28.2678 40.0416 30.7822 35.8509 33.1897C35.2069 33.5581 34.4813 33.7494 33.75 33.7494C33.0187 33.7494 32.2931 33.5581 31.6575 33.1953C27.4669 30.7822 24.5419 28.265 22.6209 25.3119H0V39.3744C0 40.9269 1.26281 42.1869 2.8125 42.1869H42.1875C43.74 42.1869 45 40.9269 45 39.3744V25.3119H44.8847ZM12.6562 33.7494H7.03125C6.255 33.7494 5.625 33.1194 5.625 32.3431C5.625 31.5669 6.255 30.9369 7.03125 30.9369H12.6562C13.4325 30.9369 14.0625 31.5669 14.0625 32.3431C14.0625 33.1194 13.4325 33.7494 12.6562 33.7494Z" fill="#014DF5"/>
<path d="M44.1478 7.14577L34.3041 2.92702C33.9469 2.77514 33.5503 2.77514 33.1931 2.92702L23.3494 7.14577C22.8347 7.36514 22.5 7.8742 22.5 8.4367V14.0617C22.5 21.7989 25.3603 26.3214 33.0497 30.7511C33.2663 30.8748 33.5081 30.9367 33.75 30.9367C33.9919 30.9367 34.2337 30.8748 34.4503 30.7511C42.1397 26.3326 45 21.8101 45 14.0617V8.4367C45 7.8742 44.6653 7.36514 44.1478 7.14577ZM39.0684 13.5358L33.4434 20.567C33.1734 20.8989 32.7684 21.093 32.3438 21.093C32.3241 21.093 32.3016 21.093 32.2847 21.093C31.8375 21.0733 31.4241 20.8426 31.1737 20.4686L28.3612 16.2498C27.9309 15.603 28.1053 14.7311 28.7522 14.3008C29.3934 13.8733 30.2681 14.042 30.7013 14.6917L32.4478 17.3101L36.8691 11.7808C37.3556 11.1761 38.2416 11.0805 38.8463 11.5614C39.4538 12.0423 39.5494 12.9283 39.0684 13.5358Z" fill="#014DF5"/>
</svg>
