<svg width="23" height="17" viewBox="0 0 23 17" fill="none" xmlns="http://www.w3.org/2000/svg">
<path d="M22.8682 8.11449C20.9448 4.0652 16.5713 0.414062 11.4551 0.414062C5.69842 0.414062 1.56051 4.91731 0.0419389 8.11449C-0.0738755 8.3584 -0.0738755 8.64162 0.0419389 8.88553C1.96533 12.9348 6.3389 16.586 11.4551 16.586C17.2118 16.586 21.3497 12.0825 22.8682 8.88553C22.9841 8.64162 22.9841 8.3584 22.8682 8.11449ZM11.4551 14.7891C7.31596 14.7891 3.88417 12.0613 1.8711 8.50001C3.87574 4.95328 7.30543 2.21094 11.4551 2.21094C15.5939 2.21094 19.026 4.93837 21.0391 8.50001C19.0344 12.0466 15.6048 14.7891 11.4551 14.7891ZM11.4551 4.00782C8.97807 4.00782 6.9629 6.02298 6.9629 8.50001C6.9629 10.977 8.97807 12.9922 11.4551 12.9922C13.9321 12.9922 15.9473 10.977 15.9473 8.50001C15.9473 6.02298 13.9321 4.00782 11.4551 4.00782ZM11.4551 11.1953C9.96898 11.1953 8.75978 9.98612 8.75978 8.50001C8.75978 7.01372 9.96898 5.80469 11.4551 5.80469C12.9414 5.80469 14.1504 7.01372 14.1504 8.50001C14.1504 9.98612 12.9414 11.1953 11.4551 11.1953Z" fill="#BDBDBD"/>
</svg>
