<svg width="24" height="24" viewBox="0 0 24 24" fill="none" xmlns="http://www.w3.org/2000/svg">
<path d="M18.9998 9.86029C17.0834 14.0342 13.6734 17.3527 9.43388 19.1517L8.75429 19.4545C7.19948 20.1472 5.37172 19.6209 4.42339 18.2074L3.53531 16.8837C3.24656 16.4533 3.33447 15.8737 3.73784 15.5483L6.74968 13.1185C7.19206 12.7616 7.84258 12.8447 8.181 13.3014L9.11273 14.5586C11.5035 13.3793 13.4446 11.4382 14.6239 9.04744L13.3667 8.11572C12.91 7.77729 12.8269 7.12678 13.1838 6.6844L15.6137 3.67245C15.939 3.26917 16.5185 3.18121 16.9489 3.46977L18.2817 4.36347C19.7041 5.31718 20.2274 7.16003 19.5187 8.71898L19.0006 9.85859L18.9998 9.86029Z" fill="#014DF5"/>
</svg>
