<svg width="70" height="42" viewBox="0 0 70 42" fill="none" xmlns="http://www.w3.org/2000/svg">
<g clip-path="url(#clip0_2103_7617)">
<path d="M14.103 37.5281H13.0626V35.4474H10.9819V37.5281H9.94153C9.36648 37.5281 8.90115 37.9935 8.90115 38.5685C8.90115 39.1436 9.36648 39.6089 9.94153 39.6089H14.103C14.6781 39.6089 15.1434 39.1436 15.1434 38.5685C15.1434 37.9935 14.6781 37.5281 14.103 37.5281Z" fill="#5A5A5A"/>
<path d="M34.9798 20.7434H25.5471V18.6626H32.8297C33.4048 18.6626 33.8701 18.1973 33.8701 17.6223V5.13779C33.8701 4.56274 33.4048 4.09741 32.8297 4.09741H16.1838C15.6087 4.09741 15.1434 4.56274 15.1434 5.13779V6.73427C16.2894 7.14182 17.3592 7.75571 18.2787 8.58808C20.2416 10.298 21.3856 12.842 21.3856 15.5415V18.6626H23.4664V20.7434H19.3049V15.5415C19.3049 13.4435 18.4159 11.4664 16.8817 10.1303C15.5488 8.92336 13.8226 8.25891 12.0223 8.25891C8.00704 8.25891 4.73964 11.5263 4.73964 15.5415V20.7434H1.54916C0.974114 20.7434 0.508789 21.2087 0.508789 21.7838V38.5685C0.508789 39.1435 0.974114 39.6088 1.54916 39.6088C2.12421 39.6088 2.58954 39.1435 2.58954 38.5685V22.8241H4.73964V23.8645C4.73964 24.4396 5.20497 24.9049 5.78002 24.9049H10.9819V26.9856H7.86077C6.13971 26.9856 4.73964 28.3857 4.73964 30.1068V32.1875C4.73964 32.7626 5.20497 33.2279 5.78002 33.2279H18.2645C18.8396 33.2279 19.3049 32.7626 19.3049 32.1875V30.1068C19.3049 28.3857 17.9048 26.9856 16.1838 26.9856H13.0626V24.9049H18.2645C18.8396 24.9049 19.3049 24.4396 19.3049 23.8645V22.8241H21.3856V26.9856H36.0202V21.7838C36.0202 21.2087 35.5549 20.7434 34.9798 20.7434Z" fill="#5A5A5A"/>
<path d="M21.3856 29.0664V38.5685C21.3856 39.1435 21.8509 39.6089 22.426 39.6089C23.001 39.6089 23.4664 39.1435 23.4664 38.5685V35.4474H33.9395V38.5685C33.9395 39.1435 34.4048 39.6089 34.9798 39.6089C35.5549 39.6089 36.0202 39.1435 36.0202 38.5685V29.0664H21.3856Z" fill="#5A5A5A"/>
</g>
<path d="M67.1209 12.3209H56.7348C55.5946 12.314 54.6642 13.2333 54.6573 14.3744V19.6843L54.2875 19.318L50.2846 11.4025C49.337 9.52616 46.3488 10.2253 46.3488 12.3209V24.3872L44.4208 32.0121L40.4661 37.8759C40.1608 38.329 40.0499 38.8854 40.1582 39.4203C40.2666 39.956 40.5848 40.4255 41.0422 40.7239C41.9967 41.3525 43.2789 41.0988 43.923 40.1546L48.0772 33.9942C48.2088 33.7981 48.3059 33.5814 48.3644 33.3536L49.552 28.6576L52.5806 31.6518V39.0152C52.5935 40.1529 53.5196 41.0679 54.6573 41.0679C55.7958 41.0679 56.7211 40.1529 56.7348 39.0152V30.8013C56.734 30.2553 56.5147 29.7325 56.126 29.3498L50.503 23.7913V21.0198L50.7223 21.4532C50.8221 21.6501 50.9536 21.8307 51.1118 21.9863L55.2652 26.0924C55.6591 26.476 56.1853 26.6918 56.7348 26.6944H67.1209C68.2611 26.7013 69.1916 25.782 69.1984 24.6409V14.3744C69.1916 13.2333 68.2611 12.314 67.1209 12.3209ZM65.0433 22.5874H58.8124V16.4278H65.0433V22.5874Z" fill="#5A5A5A"/>
<path d="M52.5805 4.10695C52.5805 1.8385 50.7205 0 48.4263 0C46.132 0 44.272 1.8385 44.272 4.10695C44.272 6.3754 46.132 8.2139 48.4263 8.2139C50.7205 8.2139 52.5805 6.3754 52.5805 4.10695Z" fill="#5A5A5A"/>
<defs>
<clipPath id="clip0_2103_7617">
<rect width="35.5114" height="35.5114" fill="white" transform="translate(0.508789 4.09741)"/>
</clipPath>
</defs>
</svg>
