<svg width="50" height="50" viewBox="0 0 50 50" fill="none" xmlns="http://www.w3.org/2000/svg">
<g clip-path="url(#clip0_105_419)">
<path d="M20.5357 26.9946V29.8303C20.5304 29.9039 20.5157 29.9765 20.492 30.0464C21.0508 30.2727 21.5795 30.5672 22.0661 30.9232C21.6513 29.5785 21.1399 28.2655 20.5357 26.9946Z" fill="#5A5A5A"/>
<path d="M2.67857 0C2.18546 0 1.78571 0.399746 1.78571 0.892857V18.75C1.78571 19.2431 2.18546 19.6429 2.67857 19.6429H15.6866C15.5304 19.4732 15.442 19.383 15.4393 19.3813C15.1617 19.1034 15.0983 18.6768 15.2831 18.3302C15.4679 17.9836 15.8575 17.7985 16.2429 17.8741C17.7732 18.2414 19.2409 18.8329 20.5982 19.6295C21.063 19.5999 21.4258 19.2158 21.4286 18.75V0.892857C21.4286 0.399746 21.0288 0 20.5357 0H16.9643V8.03572C16.9642 8.35745 16.7911 8.65427 16.511 8.81268C16.231 8.97109 15.8874 8.96659 15.6116 8.80089L11.6071 6.39821L7.60268 8.80089C7.32689 8.96659 6.98328 8.97109 6.70325 8.81268C6.42321 8.65427 6.25006 8.35745 6.25 8.03572V0H2.67857ZM10.7143 16.9643H5.35714C4.86403 16.9643 4.46428 16.5645 4.46428 16.0714C4.46428 15.5783 4.86403 15.1786 5.35714 15.1786H10.7143C11.2074 15.1786 11.6071 15.5783 11.6071 16.0714C11.6071 16.5645 11.2074 16.9643 10.7143 16.9643ZM10.7143 11.6071C11.2074 11.6071 11.6071 12.0069 11.6071 12.5C11.6071 12.9931 11.2074 13.3929 10.7143 13.3929H5.35714C4.86403 13.3929 4.46428 12.9931 4.46428 12.5C4.46428 12.0069 4.86403 11.6071 5.35714 11.6071H10.7143Z" fill="#5A5A5A"/>
<path d="M12.067 4.59196L15.1786 6.45893V0H8.03571V6.45893L11.1473 4.59196C11.4303 4.42195 11.784 4.42195 12.067 4.59196Z" fill="#5A5A5A"/>
<path d="M14.858 26.1001L18.75 29.3466V23.735C18.183 22.8278 17.6375 22.0537 17.1652 21.4287H9.82143V29.3439L13.7134 26.1001C14.0448 25.8234 14.5267 25.8234 14.858 26.1001Z" fill="#5A5A5A"/>
<path d="M24.9937 36.7115C24.9829 36.7629 24.9673 36.8131 24.9473 36.8615C24.9616 37.0651 24.9759 37.2723 24.9839 37.4999H26.2018C26.9181 35.6786 28.0201 34.0338 29.4321 32.6785C29.0835 28.9216 29.3855 25.1327 30.325 21.4785C28.492 23.6544 26.0071 28.0955 24.9937 36.7115Z" fill="#5A5A5A"/>
<path d="M21.2295 37.4999H23.1938C23.1821 37.2115 23.1652 36.9436 23.142 36.69C23.0946 35.9445 23.0098 35.2293 22.8902 34.4909C21.8097 32.4746 19.6982 31.2256 17.4107 31.2499C16.962 31.2506 16.5141 31.2879 16.0714 31.3615C18.5413 32.637 20.3985 34.8472 21.2295 37.4999Z" fill="#5A5A5A"/>
<path d="M26.7857 23.6064V22.3216C26.7857 21.8285 26.386 21.4287 25.8929 21.4287H23.125C24.3111 22.4616 25.3144 23.6871 26.0929 25.0537C26.3203 24.537 26.5512 24.0546 26.7857 23.6064Z" fill="#5A5A5A"/>
<path d="M25.2071 27.3214C24.1727 24.7829 22.3182 22.6637 19.9393 21.3018C19.5723 21.0804 19.2125 20.8866 18.8679 20.7161C21.2405 23.9454 23.0025 27.5814 24.067 31.4446C24.368 30.0496 24.7487 28.6729 25.2071 27.3214Z" fill="#5A5A5A"/>
<path d="M26.7884 39.2856H26.7857H26.783H19.6429V41.0714H32.1429H32.1438L32.1429 39.2856H26.7884Z" fill="#5A5A5A"/>
<path d="M17.8571 41.0716V39.2859C17.86 38.4135 18.4927 37.6709 19.3536 37.5296C18.2886 34.8217 15.9745 32.8 13.1482 32.1082C12.7941 32.0072 12.5383 31.6991 12.5041 31.3324C12.47 30.9658 12.6644 30.6158 12.9937 30.451C14.0159 29.9932 15.1014 29.6922 16.2134 29.5582L14.2857 27.9466L9.50178 31.9341C9.23595 32.1567 8.8653 32.2052 8.55109 32.0587C8.23689 31.9121 8.03595 31.5969 8.0357 31.2501V21.4287H0.892846C0.399734 21.4287 -1.14441e-05 21.8285 -1.14441e-05 22.3216V49.1073C-1.14441e-05 49.6004 0.399734 50.0001 0.892846 50.0001H20.3393L18.875 42.6787C18.2548 42.3834 17.8591 41.7585 17.8571 41.0716ZM3.57142 35.7144H10.7143C11.2074 35.7144 11.6071 36.1142 11.6071 36.6073C11.6071 37.1004 11.2074 37.5001 10.7143 37.5001H3.57142C3.07831 37.5001 2.67856 37.1004 2.67856 36.6073C2.67856 36.1142 3.07831 35.7144 3.57142 35.7144ZM10.7143 44.643H3.57142C3.07831 44.643 2.67856 44.2433 2.67856 43.7501C2.67856 43.257 3.07831 42.8573 3.57142 42.8573H10.7143C11.2074 42.8573 11.6071 43.257 11.6071 43.7501C11.6071 44.2433 11.2074 44.643 10.7143 44.643ZM13.3928 41.0716H3.57142C3.07831 41.0716 2.67856 40.6718 2.67856 40.1787C2.67856 39.6856 3.07831 39.2859 3.57142 39.2859H13.3928C13.886 39.2859 14.2857 39.6856 14.2857 40.1787C14.2857 40.6718 13.886 41.0716 13.3928 41.0716Z" fill="#5A5A5A"/>
<path d="M22.1598 50H25.8929H29.6259L31.0536 42.8572H20.7321L22.1598 50Z" fill="#5A5A5A"/>
<path d="M28.1571 37.5001H31.1446C31.0833 35.6694 31.8473 33.908 33.2259 32.7019C32.8982 32.751 32.5771 32.837 32.2687 32.9582C30.7054 33.5715 29.2991 35.1314 28.1571 37.5001Z" fill="#5A5A5A"/>
<path d="M48.2143 20.7V14.2857H48.7849C49.0472 14.2856 49.2962 14.1701 49.4657 13.97C49.6353 13.7698 49.7082 13.5052 49.6652 13.2464L47.5831 0.746429C47.5114 0.31556 47.1386 -0.000235572 46.7018 1.31856e-07H37.2268C36.79 -0.000235572 36.4172 0.31556 36.3455 0.746429L34.2634 13.2464C34.2204 13.5052 34.2933 13.7698 34.4629 13.97C34.6324 14.1701 34.8814 14.2856 35.1438 14.2857H41.0714V48.2143H37.5C37.0069 48.2143 36.6072 48.614 36.6072 49.1071V50H47.3215V49.1071C47.3215 48.614 46.9217 48.2143 46.4286 48.2143H42.8572V14.2857H46.4286V20.7C45.1986 21.1349 44.4609 22.3926 44.6815 23.6783C44.9021 24.9641 46.0169 25.904 47.3215 25.904C48.626 25.904 49.7409 24.9641 49.9615 23.6783C50.1821 22.3926 49.4443 21.1349 48.2143 20.7Z" fill="#5A5A5A"/>
</g>
<defs>
<clipPath id="clip0_105_419">
<rect width="50" height="50" fill="white"/>
</clipPath>
</defs>
</svg>
