<svg width="18" height="15" viewBox="0 0 18 15" fill="none" xmlns="http://www.w3.org/2000/svg">
<path fill-rule="evenodd" clip-rule="evenodd" d="M4.75194 0.143044C7.44826 -0.0601765 10.1565 -0.0468426 12.8507 0.182917L14.4745 0.321389C15.701 0.425985 16.6964 1.3568 16.8829 2.57355L16.9853 3.24188C17.3329 5.50978 17.3005 7.81975 16.8892 10.077C16.6862 11.1907 15.7161 12.0001 14.584 12.0001H5.60756C5.40104 12.0001 5.19774 12.0513 5.01583 12.1491L1.10504 14.2508C0.872606 14.3757 0.591631 14.3693 0.365148 14.2339C0.138666 14.0985 0 13.854 0 13.5901V5.07283C0 2.49424 1.98741 0.351406 4.55871 0.157608L4.75194 0.143044ZM4.75 5.09013C4.05964 5.09013 3.5 5.64978 3.5 6.34013C3.5 7.03049 4.05964 7.59013 4.75 7.59013C5.44036 7.59013 6 7.03049 6 6.34013C6 5.64978 5.44036 5.09013 4.75 5.09013ZM8.75 5.09013C8.05964 5.09013 7.5 5.64978 7.5 6.34013C7.5 7.03049 8.05964 7.59013 8.75 7.59013C9.44036 7.59013 10 7.03049 10 6.34013C10 5.64978 9.44036 5.09013 8.75 5.09013ZM11.5 6.34013C11.5 5.64978 12.0596 5.09013 12.75 5.09013C13.4404 5.09013 14 5.64978 14 6.34013C14 7.03049 13.4404 7.59013 12.75 7.59013C12.0596 7.59013 11.5 7.03049 11.5 6.34013Z" fill="#014DF5"/>
</svg>
