<svg width="20" height="20" viewBox="0 0 20 20" fill="none" xmlns="http://www.w3.org/2000/svg">
<path d="M19.1308 7.4193C19.0731 7.24949 18.967 7.10028 18.8255 6.99009C18.684 6.8799 18.5134 6.81356 18.3346 6.79925L13.1055 6.38374L10.8426 1.37473C10.7706 1.2134 10.6534 1.07637 10.5051 0.980186C10.3569 0.884002 10.184 0.832769 10.0073 0.832672C9.83064 0.832575 9.65769 0.883618 9.50937 0.97964C9.36104 1.07566 9.24368 1.21256 9.17144 1.37381L6.90862 6.38374L1.67947 6.79925C1.50378 6.81317 1.33582 6.87741 1.19568 6.98428C1.05554 7.09116 0.949159 7.23615 0.889264 7.4019C0.829369 7.56765 0.818495 7.74715 0.857942 7.91892C0.89739 8.09069 0.985489 8.24746 1.1117 8.37047L4.97601 12.1376L3.60933 18.0555C3.56783 18.2347 3.58113 18.4222 3.6475 18.5936C3.71388 18.7651 3.83026 18.9127 3.98154 19.0172C4.13283 19.1217 4.31204 19.1784 4.49591 19.1798C4.67979 19.1812 4.85984 19.1273 5.0127 19.0251L10.007 15.6955L15.0014 19.0251C15.1576 19.1288 15.3419 19.1822 15.5294 19.1781C15.7169 19.174 15.8986 19.1125 16.0501 19.0021C16.2017 18.8916 16.3158 18.7373 16.377 18.5601C16.4383 18.3828 16.4438 18.1911 16.3928 18.0106L14.7152 12.1403L18.8758 8.39616C19.1482 8.15034 19.2482 7.76693 19.1308 7.4193Z" fill="#F0B500"/>
</svg>
